<svg xmlns="http://www.w3.org/2000/svg" xmlns:xlink="http://www.w3.org/1999/xlink" x="0px" y="0px" width="64px" height="64px" viewBox="0 0 64 64" stroke-width="2"><g stroke-width="2" transform="translate(0.5, 0.5)"><line data-cap="butt" x1="39.73" y1="8.265" x2="55.67" y2="24.204" fill="none" stroke="#000000" stroke-miterlimit="10" stroke-width="2" stroke-linecap="butt" stroke-linejoin="miter"></line><path data-cap="butt" d="M33.48,11.733A21.347,21.347,0,0,0,6.532,20.555l9.188,9.188" fill="none" stroke="#000000" stroke-miterlimit="10" stroke-width="2" stroke-linecap="butt" stroke-linejoin="miter"></path><path data-cap="butt" d="M52.214,30.4a21.347,21.347,0,0,1-8.77,27.068l-9.226-9.226" fill="none" stroke="#000000" stroke-miterlimit="10" stroke-width="2" stroke-linecap="butt" stroke-linejoin="miter"></path><path d="M26.884,52.278,11.722,37.116S24.673,4.9,61,3C58.947,39.169,26.884,52.278,26.884,52.278Z" fill="none" stroke="#000000" stroke-linecap="square" stroke-miterlimit="10" stroke-width="2" stroke-linejoin="miter"></path><circle data-color="color-2" cx="35" cy="29" r="6" fill="none" stroke="#000000" stroke-linecap="square" stroke-miterlimit="10" stroke-width="2" stroke-linejoin="miter"></circle><path data-color="color-2" d="M6.757,48.757a6,6,0,0,1,8.486,8.486C12.243,60.243,3,61,3,61S3.757,51.757,6.757,48.757Z" fill="none" stroke="#000000" stroke-linecap="square" stroke-miterlimit="10" stroke-width="2" stroke-linejoin="miter"></path></g></svg>